<mxfile host="app.diagrams.net" modified="2023-09-14T15:39:42.682Z" agent="Mozilla/5.0 (Windows NT 10.0; Win64; x64) AppleWebKit/537.36 (KHTML, like Gecko) Chrome/116.0.0.0 Safari/537.36" etag="tvdcctpbtQzII3ym9WFD" version="21.7.5" type="device">
  <diagram name="Strona-1" id="_El_89KG2usFt5gAlntv">
    <mxGraphModel dx="1290" dy="542" grid="0" gridSize="10" guides="1" tooltips="1" connect="1" arrows="1" fold="1" page="0" pageScale="1" pageWidth="827" pageHeight="1169" math="0" shadow="0">
      <root>
        <mxCell id="0" />
        <mxCell id="1" parent="0" />
        <mxCell id="_eYpQvzrwPDM7Ey0TnWh-33" value="&lt;font style=&quot;font-size: 11px;&quot;&gt;Błędnie wprowadzone dane&lt;/font&gt;" style="html=1;verticalAlign=bottom;endArrow=open;dashed=1;endSize=8;edgeStyle=elbowEdgeStyle;elbow=vertical;curved=0;rounded=0;fontSize=12;" parent="1" source="_eYpQvzrwPDM7Ey0TnWh-62" edge="1">
          <mxGeometry x="-0.0008" relative="1" as="geometry">
            <mxPoint x="361.4599999999998" y="454.00476190476184" as="sourcePoint" />
            <mxPoint x="212.00380952380965" y="454.19333333333327" as="targetPoint" />
            <mxPoint as="offset" />
          </mxGeometry>
        </mxCell>
        <mxCell id="_eYpQvzrwPDM7Ey0TnWh-9" value="alternative" style="shape=umlFrame;whiteSpace=wrap;html=1;pointerEvents=0;fontSize=16;width=110;height=20;" parent="1" vertex="1">
          <mxGeometry x="154" y="283" width="404" height="188" as="geometry" />
        </mxCell>
        <mxCell id="_eYpQvzrwPDM7Ey0TnWh-23" value="" style="edgeStyle=none;orthogonalLoop=1;jettySize=auto;html=1;rounded=0;fontSize=12;startSize=8;endSize=8;curved=1;exitX=-0.002;exitY=0.499;exitDx=0;exitDy=0;exitPerimeter=0;entryX=1.001;entryY=0.502;entryDx=0;entryDy=0;entryPerimeter=0;endArrow=none;endFill=0;dashed=1;dashPattern=12 12;" parent="1" source="_eYpQvzrwPDM7Ey0TnWh-9" target="_eYpQvzrwPDM7Ey0TnWh-9" edge="1">
          <mxGeometry width="140" relative="1" as="geometry">
            <mxPoint x="186" y="358.76" as="sourcePoint" />
            <mxPoint x="326" y="358.76" as="targetPoint" />
            <Array as="points" />
          </mxGeometry>
        </mxCell>
        <mxCell id="_eYpQvzrwPDM7Ey0TnWh-6" value="Sprawdz bazę książek" style="html=1;verticalAlign=bottom;endArrow=block;edgeStyle=elbowEdgeStyle;elbow=vertical;curved=0;rounded=0;fontSize=12;startSize=8;endSize=8;" parent="1" target="_eYpQvzrwPDM7Ey0TnWh-62" edge="1">
          <mxGeometry width="80" relative="1" as="geometry">
            <mxPoint x="211.92857142857133" y="208.9957142857142" as="sourcePoint" />
            <mxPoint x="301.5" y="208.9957142857142" as="targetPoint" />
          </mxGeometry>
        </mxCell>
        <mxCell id="_eYpQvzrwPDM7Ey0TnWh-18" value="Wybierz rekord" style="html=1;verticalAlign=bottom;endArrow=block;edgeStyle=elbowEdgeStyle;elbow=vertical;curved=0;rounded=0;fontSize=12;startSize=8;endSize=8;" parent="1" target="_eYpQvzrwPDM7Ey0TnWh-62" edge="1">
          <mxGeometry width="80" relative="1" as="geometry">
            <mxPoint x="211.99857142857132" y="271.0957142857142" as="sourcePoint" />
            <mxPoint x="361.07" y="271.1" as="targetPoint" />
          </mxGeometry>
        </mxCell>
        <mxCell id="_eYpQvzrwPDM7Ey0TnWh-1" value="" style="shape=umlLifeline;perimeter=lifelinePerimeter;whiteSpace=wrap;html=1;container=1;dropTarget=0;collapsible=0;recursiveResize=0;outlineConnect=0;portConstraint=eastwest;newEdgeStyle={&quot;edgeStyle&quot;:&quot;elbowEdgeStyle&quot;,&quot;elbow&quot;:&quot;vertical&quot;,&quot;curved&quot;:0,&quot;rounded&quot;:0};participant=umlActor;fontSize=16;" parent="1" vertex="1">
          <mxGeometry x="202" y="129" width="20" height="464" as="geometry" />
        </mxCell>
        <mxCell id="_eYpQvzrwPDM7Ey0TnWh-2" value="Aplikacja" style="shape=umlLifeline;perimeter=lifelinePerimeter;whiteSpace=wrap;html=1;container=1;dropTarget=0;collapsible=0;recursiveResize=0;outlineConnect=0;portConstraint=eastwest;newEdgeStyle={&quot;edgeStyle&quot;:&quot;elbowEdgeStyle&quot;,&quot;elbow&quot;:&quot;vertical&quot;,&quot;curved&quot;:0,&quot;rounded&quot;:0};fontSize=16;" parent="1" vertex="1">
          <mxGeometry x="312" y="129" width="100" height="452" as="geometry" />
        </mxCell>
        <mxCell id="_eYpQvzrwPDM7Ey0TnWh-62" value="" style="html=1;points=[];perimeter=orthogonalPerimeter;outlineConnect=0;targetShapes=umlLifeline;portConstraint=eastwest;newEdgeStyle={&quot;edgeStyle&quot;:&quot;elbowEdgeStyle&quot;,&quot;elbow&quot;:&quot;vertical&quot;,&quot;curved&quot;:0,&quot;rounded&quot;:0};fontSize=16;" parent="_eYpQvzrwPDM7Ey0TnWh-2" vertex="1">
          <mxGeometry x="45" y="78" width="10" height="360" as="geometry" />
        </mxCell>
        <mxCell id="_eYpQvzrwPDM7Ey0TnWh-4" value="Baza Danych" style="shape=umlLifeline;perimeter=lifelinePerimeter;whiteSpace=wrap;html=1;container=1;dropTarget=0;collapsible=0;recursiveResize=0;outlineConnect=0;portConstraint=eastwest;newEdgeStyle={&quot;edgeStyle&quot;:&quot;elbowEdgeStyle&quot;,&quot;elbow&quot;:&quot;vertical&quot;,&quot;curved&quot;:0,&quot;rounded&quot;:0};fontSize=16;" parent="1" vertex="1">
          <mxGeometry x="462" y="129" width="100" height="459" as="geometry" />
        </mxCell>
        <mxCell id="_eYpQvzrwPDM7Ey0TnWh-65" value="" style="html=1;points=[];perimeter=orthogonalPerimeter;outlineConnect=0;targetShapes=umlLifeline;portConstraint=eastwest;newEdgeStyle={&quot;edgeStyle&quot;:&quot;elbowEdgeStyle&quot;,&quot;elbow&quot;:&quot;vertical&quot;,&quot;curved&quot;:0,&quot;rounded&quot;:0};fontSize=16;" parent="_eYpQvzrwPDM7Ey0TnWh-4" vertex="1">
          <mxGeometry x="45" y="188" width="10" height="238" as="geometry" />
        </mxCell>
        <mxCell id="_eYpQvzrwPDM7Ey0TnWh-16" value="Pokaz bazę" style="html=1;verticalAlign=bottom;endArrow=open;dashed=1;endSize=8;edgeStyle=elbowEdgeStyle;elbow=vertical;curved=0;rounded=0;fontSize=12;" parent="1" edge="1">
          <mxGeometry relative="1" as="geometry">
            <mxPoint x="361.4599999999998" y="237.0047619047618" as="sourcePoint" />
            <mxPoint x="212.00380952380962" y="237.19333333333327" as="targetPoint" />
          </mxGeometry>
        </mxCell>
        <mxCell id="_eYpQvzrwPDM7Ey0TnWh-19" value="Edytuj rekord" style="html=1;verticalAlign=bottom;endArrow=block;edgeStyle=elbowEdgeStyle;elbow=vertical;curved=0;rounded=0;fontSize=12;startSize=8;endSize=8;" parent="1" target="_eYpQvzrwPDM7Ey0TnWh-62" edge="1">
          <mxGeometry width="80" relative="1" as="geometry">
            <mxPoint x="211.99857142857132" y="318.9957142857142" as="sourcePoint" />
            <mxPoint x="357" y="319" as="targetPoint" />
          </mxGeometry>
        </mxCell>
        <mxCell id="_eYpQvzrwPDM7Ey0TnWh-21" value="Edytuj dane" style="html=1;verticalAlign=bottom;endArrow=block;edgeStyle=elbowEdgeStyle;elbow=vertical;curved=0;rounded=0;fontSize=12;startSize=8;endSize=8;" parent="1" source="_eYpQvzrwPDM7Ey0TnWh-62" target="_eYpQvzrwPDM7Ey0TnWh-65" edge="1">
          <mxGeometry width="80" relative="1" as="geometry">
            <mxPoint x="361.9985714285713" y="331.0957142857142" as="sourcePoint" />
            <mxPoint x="511.07" y="331.1" as="targetPoint" />
            <Array as="points">
              <mxPoint x="378" y="329" />
            </Array>
          </mxGeometry>
        </mxCell>
        <mxCell id="_eYpQvzrwPDM7Ey0TnWh-25" value="&lt;font style=&quot;font-size: 13px;&quot;&gt;[if okay]&lt;/font&gt;" style="text;html=1;align=center;verticalAlign=middle;resizable=0;points=[];autosize=1;strokeColor=none;fillColor=none;fontSize=16;" parent="1" vertex="1">
          <mxGeometry x="149" y="317" width="63" height="31" as="geometry" />
        </mxCell>
        <mxCell id="_eYpQvzrwPDM7Ey0TnWh-26" value="&lt;font style=&quot;font-size: 13px;&quot;&gt;[else]&lt;/font&gt;" style="text;html=1;align=center;verticalAlign=middle;resizable=0;points=[];autosize=1;strokeColor=none;fillColor=none;fontSize=16;" parent="1" vertex="1">
          <mxGeometry x="156" y="404" width="49" height="31" as="geometry" />
        </mxCell>
        <mxCell id="_eYpQvzrwPDM7Ey0TnWh-27" value="Edycja zakończona" style="html=1;verticalAlign=bottom;endArrow=open;dashed=1;endSize=8;edgeStyle=elbowEdgeStyle;elbow=vertical;curved=0;rounded=0;fontSize=12;" parent="1" edge="1">
          <mxGeometry relative="1" as="geometry">
            <mxPoint x="507" y="351" as="sourcePoint" />
            <mxPoint x="367" y="351" as="targetPoint" />
            <Array as="points">
              <mxPoint x="497" y="351" />
            </Array>
          </mxGeometry>
        </mxCell>
        <mxCell id="_eYpQvzrwPDM7Ey0TnWh-29" value="Potwierdzenie edycji" style="html=1;verticalAlign=bottom;endArrow=open;dashed=1;endSize=8;edgeStyle=elbowEdgeStyle;elbow=vertical;curved=0;rounded=0;fontSize=12;" parent="1" edge="1">
          <mxGeometry relative="1" as="geometry">
            <mxPoint x="361.4599999999998" y="363.1447619047618" as="sourcePoint" />
            <mxPoint x="212.00380952380965" y="363.33333333333326" as="targetPoint" />
          </mxGeometry>
        </mxCell>
        <mxCell id="_eYpQvzrwPDM7Ey0TnWh-30" value="Edytuj rekord" style="html=1;verticalAlign=bottom;endArrow=block;edgeStyle=elbowEdgeStyle;elbow=vertical;curved=0;rounded=0;fontSize=12;startSize=8;endSize=8;" parent="1" edge="1">
          <mxGeometry width="80" relative="1" as="geometry">
            <mxPoint x="211.99857142857132" y="401.09571428571417" as="sourcePoint" />
            <mxPoint x="357" y="401" as="targetPoint" />
          </mxGeometry>
        </mxCell>
        <mxCell id="_eYpQvzrwPDM7Ey0TnWh-31" value="Edytuj dane" style="html=1;verticalAlign=bottom;endArrow=block;edgeStyle=elbowEdgeStyle;elbow=vertical;curved=0;rounded=0;fontSize=12;startSize=8;endSize=8;" parent="1" edge="1">
          <mxGeometry width="80" relative="1" as="geometry">
            <mxPoint x="367" y="411" as="sourcePoint" />
            <mxPoint x="507" y="411" as="targetPoint" />
          </mxGeometry>
        </mxCell>
        <mxCell id="_eYpQvzrwPDM7Ey0TnWh-32" value="Nieprawidłowe dane" style="html=1;verticalAlign=bottom;endArrow=open;dashed=1;endSize=8;edgeStyle=elbowEdgeStyle;elbow=vertical;curved=0;rounded=0;fontSize=12;" parent="1" edge="1">
          <mxGeometry relative="1" as="geometry">
            <mxPoint x="512.4599999999998" y="435.00476190476184" as="sourcePoint" />
            <mxPoint x="363.00380952380965" y="435.19333333333327" as="targetPoint" />
          </mxGeometry>
        </mxCell>
        <mxCell id="_eYpQvzrwPDM7Ey0TnWh-52" value="Usuń rekord" style="html=1;verticalAlign=bottom;endArrow=block;edgeStyle=elbowEdgeStyle;elbow=vertical;curved=0;rounded=0;fontSize=12;startSize=8;endSize=8;" parent="1" target="_eYpQvzrwPDM7Ey0TnWh-62" edge="1">
          <mxGeometry x="0.0062" width="80" relative="1" as="geometry">
            <mxPoint x="211.99857142857132" y="517.0957142857142" as="sourcePoint" />
            <mxPoint x="361.07" y="517.1" as="targetPoint" />
            <mxPoint as="offset" />
          </mxGeometry>
        </mxCell>
        <mxCell id="_eYpQvzrwPDM7Ey0TnWh-53" value="Usuń dane" style="html=1;verticalAlign=bottom;endArrow=block;edgeStyle=elbowEdgeStyle;elbow=vertical;curved=0;rounded=0;fontSize=12;startSize=8;endSize=8;" parent="1" edge="1">
          <mxGeometry width="80" relative="1" as="geometry">
            <mxPoint x="367" y="528" as="sourcePoint" />
            <mxPoint x="507" y="528" as="targetPoint" />
          </mxGeometry>
        </mxCell>
        <mxCell id="_eYpQvzrwPDM7Ey0TnWh-54" value="Usunięcie zakończone" style="html=1;verticalAlign=bottom;endArrow=open;dashed=1;endSize=8;edgeStyle=elbowEdgeStyle;elbow=vertical;curved=0;rounded=0;fontSize=12;" parent="1" edge="1">
          <mxGeometry relative="1" as="geometry">
            <mxPoint x="506.0000000000001" y="549" as="sourcePoint" />
            <mxPoint x="366.0000000000001" y="549" as="targetPoint" />
            <Array as="points">
              <mxPoint x="497" y="549" />
            </Array>
          </mxGeometry>
        </mxCell>
        <mxCell id="_eYpQvzrwPDM7Ey0TnWh-55" value="Potwierdzenie usunięcia" style="html=1;verticalAlign=bottom;endArrow=open;dashed=1;endSize=8;edgeStyle=elbowEdgeStyle;elbow=vertical;curved=0;rounded=0;fontSize=12;" parent="1" source="_eYpQvzrwPDM7Ey0TnWh-62" edge="1">
          <mxGeometry relative="1" as="geometry">
            <mxPoint x="361.4599999999998" y="565.1047619047619" as="sourcePoint" />
            <mxPoint x="212.00380952380965" y="565.2933333333333" as="targetPoint" />
          </mxGeometry>
        </mxCell>
      </root>
    </mxGraphModel>
  </diagram>
</mxfile>
